<svg width="906" height="166" viewBox="0 0 906 166" fill="none" xmlns="http://www.w3.org/2000/svg">
<path d="M40.7388 95.05C49.9833 95.05 57.4776 88.547 57.4776 80.525C57.4776 72.5031 49.9833 66 40.7388 66C31.4942 66 24 72.5031 24 80.525C24 88.547 31.4942 95.05 40.7388 95.05Z" fill="black"/>
<path d="M121.739 49.0845C130.983 49.0845 138.478 42.5814 138.478 34.5595C138.478 26.5375 130.983 20.0345 121.739 20.0345C112.494 20.0345 105 26.5375 105 34.5595C105 42.5814 112.494 49.0845 121.739 49.0845Z" fill="black"/>
<path d="M120.738 143.049C129.983 143.049 137.477 136.547 137.477 128.525C137.477 120.503 129.983 114 120.738 114C111.494 114 104 120.503 104 128.525C104 136.547 111.494 143.049 120.738 143.049Z" fill="black"/>
<path d="M191.082 97.6429C200.515 97.6429 208.161 91.0071 208.161 82.8215C208.161 74.636 200.515 68 191.082 68C181.648 68 174 74.636 174 82.8215C174 91.0071 181.648 97.6429 191.082 97.6429Z" fill="black"/>
<path d="M41 77L122 35" stroke="black" stroke-width="5" stroke-linecap="round"/>
<path d="M41 81L122 127" stroke="black" stroke-width="5" stroke-linecap="round"/>
<path d="M122 35L191 83" stroke="black" stroke-width="5" stroke-linecap="round"/>
<path d="M122 127L191 87" stroke="black" stroke-width="5" stroke-linecap="round"/>
<path d="M244 126.496V39H304.299V53.8013H260.42V73.1985H301.247V87.9402H260.42V111.754H305.852V126.496H244ZM346.68 63.1121V76.481H336.028V102.025C336.028 107.198 336.12 110.222 336.308 111.097C336.527 111.933 336.99 112.63 337.693 113.186C338.431 113.743 339.318 114.022 340.354 114.022C341.796 114.022 343.889 113.485 346.624 112.41L347.957 125.422C344.331 127.093 340.228 127.928 335.64 127.928C332.83 127.928 330.296 127.431 328.041 126.436C325.786 125.402 324.121 124.089 323.046 122.497C322.011 120.866 321.29 118.677 320.883 115.932C320.551 113.982 320.385 110.043 320.385 104.115V76.481H313.23V63.1121H320.385V50.5188L336.028 40.7305V63.1121H346.68ZM373.029 39V71.1691C378.059 64.8426 384.067 61.6797 391.058 61.6797C394.645 61.6797 397.879 62.3956 400.766 63.8281C403.651 65.2605 405.814 67.0907 407.256 69.3191C408.732 71.5471 409.734 74.0142 410.249 76.7198C410.804 79.4253 411.084 83.6231 411.084 89.313V126.496H395.492V93.0133C395.492 86.3686 395.2 82.1512 394.606 80.3604C394.016 78.5702 392.962 77.1575 391.447 76.1232C389.966 75.0485 388.099 74.5116 385.84 74.5116C383.253 74.5116 380.942 75.1881 378.91 76.5407C376.874 77.8938 375.376 79.943 374.414 82.688C373.492 85.394 373.029 89.4126 373.029 94.7443V126.496H357.439V39H373.029ZM426.949 54.5178V39H442.535V54.5178H426.949ZM426.949 126.496V63.1121H442.535V126.496H426.949ZM454.962 93.9089C454.962 88.3385 456.237 82.9471 458.79 77.7343C461.342 72.522 464.946 68.5434 469.604 65.7979C474.301 63.0523 479.536 61.6797 485.304 61.6797C494.218 61.6797 501.519 64.8031 507.217 71.0501C512.91 77.2572 515.759 85.1153 515.759 94.6249C515.759 104.214 512.875 112.172 507.104 118.498C501.374 124.785 494.143 127.928 485.417 127.928C480.017 127.928 474.856 126.615 469.941 123.989C465.055 121.363 461.342 117.524 458.79 112.47C456.237 107.377 454.962 101.19 454.962 93.9089ZM470.937 94.8041C470.937 101.09 472.322 105.905 475.097 109.247C477.872 112.59 481.293 114.261 485.361 114.261C489.429 114.261 492.832 112.59 495.568 109.247C498.343 105.905 499.728 101.051 499.728 94.6847C499.728 88.4775 498.343 83.703 495.568 80.3604C492.832 77.0183 489.429 75.3471 485.361 75.3471C481.293 75.3471 477.872 77.0183 475.097 80.3604C472.322 83.703 470.937 88.5171 470.937 94.8041ZM539.669 126.496L520.251 39H537.061L549.321 99.1014L564.186 39H583.714L597.968 100.116L610.451 39H626.981L607.23 126.496H589.814L573.615 61.0826L557.475 126.496H539.669ZM629.699 93.9089C629.699 88.3385 630.974 82.9471 633.526 77.7343C636.078 72.522 639.683 68.5434 644.346 65.7979C649.042 63.0523 654.273 61.6797 660.041 61.6797C668.955 61.6797 676.261 64.8031 681.954 71.0501C687.647 77.2572 690.496 85.1153 690.496 94.6249C690.496 104.214 687.612 112.172 681.844 118.498C676.111 124.785 668.88 127.928 660.154 127.928C654.753 127.928 649.593 126.615 644.678 123.989C639.796 121.363 636.078 117.524 633.526 112.47C630.974 107.377 629.699 101.19 629.699 93.9089ZM645.674 94.8041C645.674 101.09 647.063 105.905 649.834 109.247C652.608 112.59 656.03 114.261 660.098 114.261C664.166 114.261 667.569 112.59 670.305 109.247C673.079 105.905 674.465 101.051 674.465 94.6847C674.465 88.4775 673.079 83.703 670.305 80.3604C667.569 77.0183 664.166 75.3471 660.098 75.3471C656.03 75.3471 652.608 77.0183 649.834 80.3604C647.063 83.703 645.674 88.5171 645.674 94.8041ZM717.678 126.496H702.088V63.1121H716.569V72.1244C719.047 67.8669 721.266 65.0617 723.223 63.7087C725.221 62.3562 727.479 61.6797 729.992 61.6797C733.545 61.6797 736.966 62.7341 740.256 64.8426L735.428 79.4653C732.802 77.6352 730.364 76.7198 728.109 76.7198C725.924 76.7198 724.076 77.3766 722.56 78.6897C721.043 79.9628 719.842 82.2903 718.955 85.6724C718.102 89.0545 717.678 96.1368 717.678 106.919V126.496ZM746.47 126.496V39H762.055V85.4335L780.307 63.1121H799.498L779.363 86.2694L800.94 126.496H784.135L769.322 98.0268L762.055 106.203V126.496H746.47ZM804.768 108.412L820.414 105.845C821.079 109.108 822.429 111.595 824.461 113.306C826.497 114.977 829.342 115.812 833.003 115.812C837.036 115.812 840.069 115.017 842.101 113.425C843.472 112.311 844.154 110.819 844.154 108.949C844.154 107.675 843.787 106.621 843.044 105.786C842.27 104.99 840.532 104.254 837.831 103.577C825.256 100.593 817.286 97.8678 813.922 95.4006C809.264 91.9791 806.934 87.2242 806.934 81.1366C806.934 75.6456 808.949 71.0299 812.977 67.2896C817.011 63.5497 823.259 61.6797 831.727 61.6797C839.789 61.6797 845.783 63.0918 849.703 65.9172C853.623 68.7423 856.324 72.9198 857.8 78.4508L843.102 81.3749C842.472 78.9083 841.27 77.0183 839.496 75.7052C837.757 74.3922 835.263 73.7355 832.007 73.7355C827.9 73.7355 824.964 74.3522 823.184 75.5859C822.001 76.4612 821.411 77.5952 821.411 78.9877C821.411 80.1814 821.931 81.1963 822.967 82.0318C824.369 83.1459 829.215 84.7175 837.499 86.7465C845.819 88.7761 851.626 91.2626 854.916 94.207C858.172 97.1914 859.797 101.349 859.797 106.681C859.797 112.49 857.542 117.484 853.029 121.661C848.52 125.839 841.842 127.928 833.003 127.928C824.981 127.928 818.619 126.178 813.922 122.676C809.264 119.175 806.214 114.42 804.768 108.412Z" fill="black"/>
</svg>
