<svg width="906" height="166" viewBox="0 0 906 166" fill="none" xmlns="http://www.w3.org/2000/svg">
<g clip-path="url(#clip0_23_3)">
<path d="M40.7388 95.05C49.9833 95.05 57.4776 88.547 57.4776 80.525C57.4776 72.5031 49.9833 66 40.7388 66C31.4942 66 24 72.5031 24 80.525C24 88.547 31.4942 95.05 40.7388 95.05Z" fill="white"/>
<path d="M121.739 49.0845C130.983 49.0845 138.478 42.5814 138.478 34.5595C138.478 26.5375 130.983 20.0345 121.739 20.0345C112.494 20.0345 105 26.5375 105 34.5595C105 42.5814 112.494 49.0845 121.739 49.0845Z" fill="white"/>
<path d="M120.738 143.049C129.983 143.049 137.477 136.547 137.477 128.525C137.477 120.503 129.983 114 120.738 114C111.494 114 104 120.503 104 128.525C104 136.547 111.494 143.049 120.738 143.049Z" fill="white"/>
<path d="M191.082 97.6429C200.515 97.6429 208.161 91.0071 208.161 82.8215C208.161 74.636 200.515 68 191.082 68C181.648 68 174 74.636 174 82.8215C174 91.0071 181.648 97.6429 191.082 97.6429Z" fill="white"/>
<path d="M41 77L122 35" stroke="white" stroke-width="5" stroke-linecap="round"/>
<path d="M40 81L121 127" stroke="white" stroke-width="5" stroke-linecap="round"/>
<path d="M122 35L191 83" stroke="white" stroke-width="5" stroke-linecap="round"/>
<path d="M122 127L191 87" stroke="white" stroke-width="5" stroke-linecap="round"/>
<path d="M285.448 133.896C278.877 133.896 272.989 132.829 267.784 130.696C262.579 128.563 258.397 125.405 255.24 121.224C252.168 117.043 250.547 112.008 250.376 106.12H273.672C274.013 109.448 275.165 112.008 277.128 113.8C279.091 115.507 281.651 116.36 284.808 116.36C288.051 116.36 290.611 115.635 292.488 114.184C294.365 112.648 295.304 110.557 295.304 107.912C295.304 105.693 294.536 103.859 293 102.408C291.549 100.957 289.715 99.7627 287.496 98.824C285.363 97.8853 282.291 96.8187 278.28 95.624C272.477 93.832 267.741 92.04 264.072 90.248C260.403 88.456 257.245 85.8107 254.6 82.312C251.955 78.8133 250.632 74.248 250.632 68.616C250.632 60.2533 253.661 53.7253 259.72 49.032C265.779 44.2533 273.672 41.864 283.4 41.864C293.299 41.864 301.277 44.2533 307.336 49.032C313.395 53.7253 316.637 60.296 317.064 68.744H293.384C293.213 65.8427 292.147 63.5813 290.184 61.96C288.221 60.2533 285.704 59.4 282.632 59.4C279.987 59.4 277.853 60.1253 276.232 61.576C274.611 62.9413 273.8 64.9467 273.8 67.592C273.8 70.4933 275.165 72.7547 277.896 74.376C280.627 75.9973 284.893 77.7467 290.696 79.624C296.499 81.5867 301.192 83.464 304.776 85.256C308.445 87.048 311.603 89.6507 314.248 93.064C316.893 96.4773 318.216 100.872 318.216 106.248C318.216 111.368 316.893 116.019 314.248 120.2C311.688 124.381 307.933 127.709 302.984 130.184C298.035 132.659 292.189 133.896 285.448 133.896ZM342.694 54.152C338.854 54.152 335.697 53.0427 333.222 50.824C330.833 48.52 329.638 45.704 329.638 42.376C329.638 38.9627 330.833 36.1467 333.222 33.928C335.697 31.624 338.854 30.472 342.694 30.472C346.449 30.472 349.521 31.624 351.91 33.928C354.385 36.1467 355.622 38.9627 355.622 42.376C355.622 45.704 354.385 48.52 351.91 50.824C349.521 53.0427 346.449 54.152 342.694 54.152ZM353.574 61.576V133H331.686V61.576H353.574ZM391.324 73.48C393.884 69.5547 397.084 66.4827 400.924 64.264C404.764 61.96 409.031 60.808 413.724 60.808V83.976H407.708C402.247 83.976 398.151 85.1707 395.42 87.56C392.689 89.864 391.324 93.96 391.324 99.848V133H369.436V61.576H391.324V73.48ZM419.834 97.16C419.834 89.8213 421.199 83.3787 423.93 77.832C426.746 72.2853 430.543 68.0187 435.322 65.032C440.101 62.0453 445.434 60.552 451.322 60.552C456.357 60.552 460.751 61.576 464.506 63.624C468.346 65.672 471.29 68.36 473.338 71.688V61.576H495.226V133H473.338V122.888C471.205 126.216 468.218 128.904 464.378 130.952C460.623 133 456.229 134.024 451.194 134.024C445.391 134.024 440.101 132.531 435.322 129.544C430.543 126.472 426.746 122.163 423.93 116.616C421.199 110.984 419.834 104.499 419.834 97.16ZM473.338 97.288C473.338 91.8267 471.802 87.5173 468.73 84.36C465.743 81.2027 462.074 79.624 457.722 79.624C453.37 79.624 449.658 81.2027 446.586 84.36C443.599 87.432 442.106 91.6987 442.106 97.16C442.106 102.621 443.599 106.973 446.586 110.216C449.658 113.373 453.37 114.952 457.722 114.952C462.074 114.952 465.743 113.373 468.73 110.216C471.802 107.059 473.338 102.749 473.338 97.288ZM532.949 116.104H561.621V133H511.061V43.144H532.949V116.104ZM583.069 54.152C579.229 54.152 576.072 53.0427 573.597 50.824C571.208 48.52 570.013 45.704 570.013 42.376C570.013 38.9627 571.208 36.1467 573.597 33.928C576.072 31.624 579.229 30.472 583.069 30.472C586.824 30.472 589.896 31.624 592.285 33.928C594.76 36.1467 595.997 38.9627 595.997 42.376C595.997 45.704 594.76 48.52 592.285 50.824C589.896 53.0427 586.824 54.152 583.069 54.152ZM593.949 61.576V133H572.061V61.576H593.949ZM653.331 60.808C661.694 60.808 668.35 63.5387 673.299 69C678.334 74.376 680.851 81.8 680.851 91.272V133H659.091V94.216C659.091 89.4373 657.854 85.7253 655.379 83.08C652.904 80.4347 649.576 79.112 645.395 79.112C641.214 79.112 637.886 80.4347 635.411 83.08C632.936 85.7253 631.699 89.4373 631.699 94.216V133H609.811V61.576H631.699V71.048C633.918 67.8907 636.904 65.416 640.659 63.624C644.414 61.7467 648.638 60.808 653.331 60.808ZM739.709 133L717.949 103.048V133H696.061V38.28H717.949V90.632L739.581 61.576H766.589L736.893 97.416L766.845 133H739.709Z" fill="white"/>
</g>
<defs>
<clipPath id="clip0_23_3">
<rect width="906" height="166" fill="white"/>
</clipPath>
</defs>
</svg>
